<?xml version="1.0" standalone="no"?>
<!DOCTYPE svg PUBLIC "-//W3C//DTD SVG 20010904//EN"
 "http://www.w3.org/TR/2001/REC-SVG-20010904/DTD/svg10.dtd">
<svg version="1.0" xmlns="http://www.w3.org/2000/svg"
 width="2628.000000pt" height="1218.000000pt" viewBox="0 0 2628.000000 1218.000000"
 preserveAspectRatio="xMidYMid meet">

<g transform="translate(0.000000,1218.000000) scale(0.100000,-0.100000)"
fill="#000000" stroke="none">
<path d="M9305 12056 c-16 -7 -45 -25 -63 -41 -89 -75 -82 -194 14 -225 108
-36 263 69 264 179 0 24 -9 42 -34 67 -31 31 -39 34 -92 34 -33 -1 -72 -7 -89
-14z"/>
<path d="M8333 11765 c-62 -26 -103 -117 -103 -229 0 -115 45 -177 112 -154
74 26 128 170 107 283 -16 87 -59 124 -116 100z"/>
<path d="M11562 11320 c-96 -25 -152 -51 -227 -105 -214 -152 -304 -393 -225
-600 27 -71 118 -167 190 -202 166 -81 392 -66 568 39 244 145 365 432 269
641 -90 197 -329 291 -575 227z"/>
<path d="M9569 11130 c-169 -31 -299 -265 -220 -396 40 -65 139 -81 228 -35
52 26 130 111 155 169 68 152 -18 289 -163 262z"/>
<path d="M8509 10764 c-86 -54 -129 -246 -79 -350 66 -135 206 -26 218 169 9
150 -55 233 -139 181z"/>
<path d="M7900 10524 c-65 -56 -100 -173 -80 -271 39 -186 205 -104 218 108 5
89 -8 140 -45 169 -34 27 -55 25 -93 -6z"/>
<path d="M13122 10380 c-123 -26 -240 -117 -295 -229 -30 -63 -32 -72 -32
-181 0 -112 1 -117 37 -193 101 -211 339 -333 560 -286 222 47 366 256 329
476 -39 231 -239 407 -475 418 -45 2 -100 0 -124 -5z"/>
<path d="M11875 10200 c-148 -23 -252 -75 -355 -179 -142 -143 -196 -322 -156
-512 42 -198 214 -371 421 -424 77 -20 230 -19 308 1 205 53 381 224 432 420
19 75 19 203 0 279 -49 187 -214 348 -405 398 -74 19 -184 27 -245 17z"/>
<path d="M10644 9830 c-259 -36 -464 -275 -464 -540 0 -236 172 -452 398 -499
262 -55 534 124 607 399 19 70 19 200 0 269 -65 247 -296 405 -541 371z"/>
<path d="M8976 9749 c-34 -27 -70 -98 -85 -167 -33 -155 16 -327 104 -369 33
-16 37 -16 70 0 94 45 147 222 114 379 -32 149 -123 220 -203 157z"/>
<path d="M8276 9469 c-43 -34 -69 -95 -68 -164 0 -113 55 -195 131 -195 138 0
181 252 62 353 -40 33 -88 35 -125 6z"/>
<path d="M7756 9296 c-55 -57 -74 -180 -40 -252 61 -128 205 53 164 205 -22
84 -72 103 -124 47z"/>
<path d="M13546 9165 c-137 -35 -259 -135 -319 -262 -28 -60 -32 -78 -31 -153
0 -105 26 -178 88 -247 91 -100 218 -150 361 -140 294 19 504 282 426 533 -37
122 -117 204 -244 253 -79 29 -199 36 -281 16z"/>
<path d="M12224 8851 c-162 -44 -270 -125 -331 -249 -35 -69 -38 -83 -38 -156
0 -70 5 -90 32 -148 152 -323 664 -399 926 -137 84 85 112 150 112 264 0 81
-3 97 -32 158 -81 171 -260 275 -488 283 -87 3 -125 0 -181 -15z"/>
<path d="M10771 8565 c-262 -74 -336 -308 -171 -542 62 -90 149 -161 265 -218
111 -55 184 -75 300 -82 420 -24 580 336 280 633 -139 138 -315 214 -510 220
-78 3 -126 0 -164 -11z"/>
<path d="M9854 8369 c-102 -13 -196 -87 -231 -182 -21 -57 -15 -174 12 -251
89 -253 383 -449 610 -407 282 52 329 378 91 638 -135 148 -317 224 -482 202z"/>
<path d="M8301 8163 c-95 -77 53 -417 267 -614 68 -62 168 -119 209 -119 101
0 103 142 5 336 -129 253 -391 470 -481 397z"/>
<path d="M16450 8108 c-464 -26 -828 -248 -1005 -612 -93 -190 -121 -345 -112
-606 24 -662 295 -1020 820 -1081 252 -29 730 45 1041 162 l56 20 0 455 0 454
-464 0 -464 0 -6 -47 c-4 -27 -9 -64 -12 -84 l-5 -36 158 -7 c87 -3 200 -9
251 -13 l92 -6 0 -312 0 -313 -111 -17 c-509 -78 -662 -35 -785 220 -19 39
-45 113 -58 165 -82 323 -70 916 23 1161 39 104 119 170 247 204 171 46 614
18 902 -58 l52 -14 10 36 c19 75 60 253 60 266 0 36 -446 77 -690 63z"/>
<path d="M24704 8109 c-244 -15 -436 -81 -601 -205 -242 -185 -372 -508 -373
-929 0 -489 158 -839 465 -1024 303 -183 827 -200 1171 -37 121 58 202 115
285 203 202 215 301 533 286 918 -13 296 -80 512 -218 695 -209 276 -557 407
-1015 379z m328 -272 c212 -70 340 -219 404 -472 74 -294 47 -877 -50 -1110
-23 -54 -51 -82 -118 -116 -170 -86 -501 -110 -683 -49 -167 55 -288 206 -344
426 -37 146 -45 240 -45 499 1 463 47 670 163 744 59 38 139 66 246 86 103 19
359 14 427 -8z"/>
<path d="M17920 8099 c-74 -3 -161 -7 -192 -8 l-58 -1 0 -1130 0 -1130 220 0
220 0 0 470 0 470 84 0 85 0 77 -147 c313 -600 433 -746 660 -799 81 -19 316
-15 402 6 l52 13 0 67 0 67 -54 6 c-151 15 -307 164 -497 472 -78 126 -219
373 -219 382 0 4 38 28 83 53 161 88 276 237 324 420 23 88 23 272 0 360 -67
251 -261 386 -617 430 -92 11 -354 11 -570 -1z m437 -219 c108 -15 194 -57
238 -118 47 -66 66 -131 72 -253 10 -190 -28 -347 -100 -417 -69 -67 -217
-112 -369 -112 l-88 0 0 449 0 450 23 4 c43 8 147 7 224 -3z"/>
<path d="M22385 8099 c-132 -4 -273 -10 -312 -14 l-73 -7 0 -1124 0 -1124 220
0 220 0 0 1024 0 1024 31 6 c56 11 233 6 287 -8 111 -30 193 -102 234 -205 17
-46 22 -83 26 -201 4 -155 -4 -221 -38 -313 -50 -133 -159 -215 -347 -260
-105 -25 -100 -18 -82 -124 l11 -65 87 7 c292 22 484 96 631 244 83 83 133
167 170 286 30 95 38 273 17 372 -65 306 -325 473 -752 485 -49 2 -198 0 -330
-3z"/>
<path d="M19632 7253 c4 -832 4 -839 26 -917 57 -205 170 -346 343 -430 115
-55 223 -82 397 -98 373 -34 717 69 926 278 72 72 109 125 151 217 72 159 69
114 73 995 l3 792 -221 0 -220 0 0 -762 c-1 -778 -7 -984 -34 -1074 -28 -92
-115 -153 -274 -195 -61 -16 -110 -21 -232 -21 -316 -1 -414 54 -477 269 -15
52 -18 144 -21 921 l-3 862 -220 0 -220 0 3 -837z"/>
<path d="M12740 7769 c-69 -12 -182 -65 -236 -112 -22 -20 -56 -64 -74 -99
-30 -55 -34 -72 -35 -138 0 -91 26 -152 96 -222 84 -84 202 -128 344 -128 223
0 396 114 441 291 15 57 15 68 0 126 -50 204 -278 324 -536 282z"/>
<path d="M11319 7461 c-188 -60 -258 -223 -168 -391 96 -180 360 -304 576
-270 264 42 359 262 203 465 -70 91 -199 171 -322 200 -86 20 -219 18 -289 -4z"/>
<path d="M8732 7373 c-104 -19 -44 -243 118 -445 158 -196 361 -309 425 -238
25 28 16 136 -19 213 -108 242 -389 494 -524 470z"/>
<path d="M10162 7345 c-147 -46 -194 -195 -113 -360 24 -47 58 -93 110 -145
133 -134 296 -210 452 -210 104 0 149 14 204 62 53 47 68 89 63 177 -15 279
-441 562 -716 476z"/>
<path d="M8340 7328 c-33 -12 -40 -25 -40 -75 0 -90 71 -215 183 -319 109
-103 212 -139 258 -93 18 18 21 29 16 75 -19 183 -296 457 -417 412z"/>
<path d="M9384 7310 c-66 -27 -84 -126 -40 -232 86 -209 361 -428 537 -428 93
0 129 37 129 134 0 105 -116 285 -251 393 -143 113 -293 166 -375 133z"/>
<path d="M8497 6813 c-25 -25 16 -120 91 -210 188 -224 490 -433 591 -408 39
10 25 80 -33 165 -102 149 -387 388 -526 441 -50 19 -111 25 -123 12z"/>
<path d="M13198 6679 c-165 -18 -306 -99 -324 -186 -25 -125 233 -203 458
-137 137 41 223 112 223 187 0 33 -6 45 -38 72 -64 55 -183 79 -319 64z"/>
<path d="M9191 6563 c-18 -15 -24 -29 -24 -60 0 -153 277 -403 464 -420 80 -8
109 11 109 70 0 70 -42 141 -144 242 -73 72 -109 99 -179 135 -105 53 -187 65
-226 33z"/>
<path d="M12021 6535 c-211 -59 -298 -220 -186 -344 164 -181 593 -151 695 50
55 106 -14 220 -167 280 -76 29 -261 37 -342 14z"/>
<path d="M9802 6494 c-28 -19 -29 -61 -3 -112 21 -42 124 -143 191 -189 162
-110 373 -164 427 -110 71 71 -98 263 -322 368 -122 58 -246 76 -293 43z"/>
<path d="M14350 6418 c-167 -58 -282 -216 -210 -288 44 -44 162 -40 263 10 72
35 162 120 172 163 29 114 -74 167 -225 115z"/>
<path d="M10851 6409 c-108 -19 -181 -65 -202 -126 -9 -29 -8 -40 13 -81 91
-184 537 -245 681 -93 56 61 49 118 -25 187 -93 89 -310 141 -467 113z"/>
<path d="M9165 6111 c-11 -19 41 -96 107 -156 108 -98 277 -203 356 -220 73
-15 47 60 -54 155 -150 140 -381 265 -409 221z"/>
<path d="M13352 6104 c-92 -24 -163 -68 -188 -116 -53 -102 126 -163 331 -113
48 12 144 66 166 93 25 32 25 84 0 106 -50 45 -200 60 -309 30z"/>
<path d="M14956 6035 c-52 -20 -103 -60 -127 -99 -24 -39 -24 -51 1 -76 43
-43 151 -18 222 50 51 49 64 95 33 120 -22 19 -86 21 -129 5z"/>
<path d="M9634 6006 c-19 -14 -19 -15 1 -52 72 -135 508 -325 581 -253 14 15
14 19 0 46 -42 82 -247 205 -418 253 -86 24 -137 25 -164 6z"/>
<path d="M14387 5959 c-173 -41 -281 -223 -150 -255 72 -18 178 20 250 89 55
53 71 98 48 133 -27 42 -70 51 -148 33z"/>
<path d="M12310 5914 c-86 -17 -154 -57 -171 -100 -23 -63 52 -136 175 -169
90 -25 254 -18 313 13 50 26 83 66 83 100 0 40 -76 106 -152 131 -63 21 -198
34 -248 25z"/>
<path d="M10318 5859 c-23 -13 -23 -52 -1 -85 9 -14 44 -45 79 -70 112 -80
259 -134 364 -134 68 0 90 13 90 51 0 67 -187 194 -345 234 -68 17 -162 19
-187 4z"/>
<path d="M11136 5840 c-135 -43 -55 -193 158 -294 121 -58 203 -79 306 -80 97
0 146 18 156 59 10 41 -4 74 -54 127 -96 103 -293 188 -452 194 -47 2 -98 -1
-114 -6z"/>
<path d="M13460 5675 c-30 -9 -73 -28 -95 -43 -72 -50 -78 -99 -14 -134 49
-27 202 -21 275 11 101 44 132 110 72 154 -36 27 -161 33 -238 12z"/>
<path d="M14406 5630 c-54 -21 -100 -60 -122 -102 -19 -36 -18 -44 6 -68 63
-63 270 37 270 130 0 58 -64 75 -154 40z"/>
<path d="M10054 5548 c-23 -36 248 -166 424 -203 109 -23 121 -3 32 54 -80 52
-213 107 -329 137 -107 27 -117 28 -127 12z"/>
<path d="M12640 5454 c-147 -29 -220 -101 -154 -153 41 -32 100 -44 195 -38
190 10 296 114 172 169 -44 19 -162 32 -213 22z"/>
<path d="M10713 5413 c-23 -9 -14 -41 17 -63 45 -32 130 -67 222 -91 104 -27
273 -33 288 -9 24 39 -113 114 -278 150 -80 18 -220 25 -249 13z"/>
<path d="M11687 5340 c-95 -24 -121 -60 -71 -99 101 -80 404 -75 432 7 7 21
-44 60 -99 77 -66 20 -210 28 -262 15z"/>
<path d="M13546 5329 c-47 -11 -102 -44 -110 -64 -22 -58 89 -98 210 -75 120
23 174 89 102 126 -39 20 -147 27 -202 13z"/>
<path d="M12839 5181 c-72 -23 -90 -57 -46 -85 42 -28 147 -49 222 -44 89 6
130 24 130 58 0 42 -75 72 -188 76 -51 2 -104 0 -118 -5z"/>
<path d="M11210 5170 c-63 -40 184 -140 345 -140 111 0 117 34 16 85 -91 46
-320 81 -361 55z"/>
<path d="M7000 5134 c-322 -49 -611 -176 -1224 -536 -305 -180 -469 -268 -627
-337 -234 -102 -576 -281 -711 -373 -32 -21 -65 -52 -73 -68 -19 -36 -19 -110
-1 -135 16 -22 -6 -30 411 152 276 122 315 135 315 110 0 -8 -6 -20 -14 -26
-24 -20 -110 -175 -145 -261 -62 -157 -53 -330 29 -502 41 -88 97 -136 235
-204 147 -71 305 -123 1105 -359 253 -75 340 -107 388 -142 97 -72 77 -178
-61 -320 -122 -127 -323 -266 -622 -433 -263 -147 -425 -213 -700 -285 -528
-139 -964 -115 -1168 65 -92 81 -140 193 -138 323 1 86 0 88 -33 125 -32 35
-38 37 -93 37 -85 -1 -156 -41 -383 -217 -290 -224 -564 -399 -928 -593 -358
-190 -582 -290 -927 -415 -364 -131 -541 -174 -725 -174 -97 0 -122 3 -162 21
-41 19 -48 26 -48 50 0 40 42 125 94 191 132 168 449 375 686 450 36 11 138
28 230 37 182 18 390 50 431 66 34 13 104 81 124 119 8 16 18 49 21 72 7 55
-25 119 -80 162 -37 30 -40 31 -133 28 -98 -3 -216 -24 -383 -69 -90 -25 -108
-26 -340 -26 -286 0 -405 14 -573 70 -112 37 -195 82 -270 145 -54 45 -120
173 -138 266 -57 301 131 803 480 1282 236 324 593 685 876 887 299 212 542
328 744 354 150 19 354 -17 453 -80 64 -40 80 -69 86 -150 11 -156 -121 -471
-359 -851 -46 -74 -202 -313 -347 -530 -145 -217 -276 -422 -292 -455 -36 -73
-60 -164 -60 -224 0 -81 50 -152 108 -151 58 1 176 92 230 178 635 1013 810
1325 927 1651 154 427 59 760 -250 876 -73 28 -202 50 -345 60 -160 11 -356
-38 -565 -141 -365 -180 -775 -513 -1126 -915 -435 -498 -739 -1055 -814
-1493 -20 -115 -19 -296 1 -394 20 -97 71 -234 115 -308 70 -119 247 -266 394
-327 65 -27 160 -58 240 -79 l49 -13 -44 -40 c-25 -21 -97 -91 -160 -155 -94
-95 -125 -134 -167 -211 -73 -134 -86 -176 -87 -294 -1 -85 3 -108 22 -150 29
-63 53 -88 125 -136 150 -98 405 -93 797 16 698 193 1515 582 2271 1081 53 35
99 64 101 64 3 0 20 -29 37 -65 84 -171 254 -281 492 -320 290 -47 751 -18
1104 69 636 157 1187 504 1539 970 77 101 103 153 112 219 8 55 -21 125 -74
181 -90 94 -334 220 -786 406 -525 216 -690 297 -784 384 -55 51 -72 83 -72
140 0 71 36 204 72 263 49 82 172 226 285 334 221 212 366 282 1233 599 270
99 434 171 472 207 43 41 38 77 -18 131 -94 90 -247 136 -384 116z m30 -259
c0 -8 -6 -15 -14 -15 -8 0 -16 -4 -18 -8 -5 -12 -157 -98 -223 -125 -54 -22
-269 -74 -383 -92 -38 -6 -43 -5 -40 10 4 22 107 84 206 126 79 33 397 118
445 118 18 1 27 -4 27 -14z"/>
<path d="M11863 5110 c-33 -14 -28 -45 10 -68 135 -83 445 -76 361 9 -37 36
-131 62 -244 65 -58 2 -115 0 -127 -6z"/>
<path d="M16817 4863 c-4 -3 -7 -546 -7 -1205 l0 -1198 150 0 150 0 0 1205 0
1205 -143 0 c-79 0 -147 -3 -150 -7z"/>
<path d="M17730 4430 l0 -250 -105 0 -105 0 0 -115 0 -115 104 0 105 0 4 -542
c4 -605 4 -608 74 -740 61 -116 170 -192 323 -224 93 -20 313 -13 440 13 l85
18 3 129 c2 120 1 128 -15 122 -165 -64 -375 -69 -478 -13 -43 24 -97 95 -117
155 -8 26 -13 187 -15 560 l-4 522 315 0 316 0 0 115 0 115 -315 0 -315 0 0
250 0 250 -150 0 -150 0 0 -250z"/>
<path d="M9326 4214 c-249 -45 -446 -196 -556 -426 -101 -210 -123 -503 -60
-768 61 -253 238 -460 469 -547 188 -71 468 -72 656 -3 355 132 552 511 505
973 -42 428 -279 706 -655 772 -107 18 -253 18 -359 -1z m366 -254 c171 -53
268 -167 320 -375 18 -75 22 -118 22 -260 1 -195 -16 -286 -72 -405 -20 -41
-101 -150 -113 -150 -4 0 -14 -6 -22 -14 -27 -27 -134 -74 -192 -85 -189 -35
-368 10 -482 120 -119 116 -185 347 -169 598 10 159 55 341 92 372 8 6 14 17
14 24 0 22 114 121 171 148 117 58 297 69 431 27z"/>
<path d="M11645 4224 c-108 -22 -142 -31 -217 -61 -49 -19 -132 -64 -185 -99
-53 -35 -101 -64 -105 -64 -4 0 -8 41 -8 90 l0 90 -150 0 -150 0 0 -860 0
-860 150 0 150 0 0 648 0 647 83 52 c103 64 163 94 252 124 60 20 89 24 200
24 77 0 147 -5 172 -13 58 -17 123 -69 152 -121 54 -98 54 -100 60 -751 l6
-605 148 -3 147 -3 0 610 c0 646 -2 682 -49 816 -78 220 -283 348 -554 344
-45 -1 -91 -3 -102 -5z"/>
<path d="M13421 4219 c-261 -32 -458 -149 -539 -321 -104 -218 -28 -464 178
-572 104 -55 163 -72 405 -121 336 -67 397 -91 442 -170 27 -47 32 -155 9
-208 -28 -66 -107 -121 -216 -148 -89 -23 -326 -18 -426 9 -145 39 -263 89
-372 158 -29 19 -57 34 -62 34 -6 0 -10 -60 -10 -155 l0 -154 28 -15 c46 -24
233 -83 317 -101 107 -22 281 -32 418 -23 246 16 454 112 564 261 63 86 86
172 81 295 -5 114 -31 183 -98 256 -96 104 -206 149 -500 206 -243 47 -306 63
-370 95 -80 41 -113 84 -125 166 -46 307 518 379 958 123 32 -19 60 -34 63
-34 2 0 4 68 4 150 l0 151 -46 20 c-184 78 -505 123 -703 98z"/>
<path d="M19574 4216 c-94 -18 -135 -32 -219 -74 -227 -113 -371 -319 -420
-601 -20 -110 -19 -336 0 -442 22 -115 40 -169 93 -274 62 -122 190 -252 308
-312 140 -73 212 -88 414 -88 200 0 263 12 395 75 183 88 324 256 394 469 53
162 64 421 26 606 -66 318 -278 550 -570 626 -103 27 -319 34 -421 15z m349
-253 c241 -71 357 -281 357 -646 0 -441 -207 -678 -569 -654 -141 10 -240 52
-322 138 -91 96 -143 231 -159 417 -23 274 33 503 155 628 75 76 157 113 305
138 43 7 179 -5 233 -21z"/>
<path d="M23068 4215 c-331 -63 -576 -290 -658 -609 -57 -224 -42 -499 37
-691 52 -126 166 -262 277 -332 168 -107 353 -154 606 -154 198 0 330 25 565
108 l80 28 3 158 3 158 -46 -31 c-99 -68 -292 -140 -445 -165 -266 -45 -503
15 -650 164 -98 100 -146 210 -157 364 l-6 87 672 0 671 0 0 121 c0 285 -58
457 -205 605 -90 91 -176 140 -305 175 -101 27 -334 34 -442 14z m372 -244
c176 -55 290 -221 290 -423 l0 -38 -526 0 -527 0 7 51 c24 182 168 350 350
409 108 35 296 35 406 1z"/>
<path d="M25005 4224 c-175 -25 -275 -54 -362 -104 -81 -47 -178 -143 -212
-211 -77 -154 -63 -346 35 -469 94 -118 226 -175 546 -235 331 -62 423 -103
457 -204 39 -118 -17 -242 -131 -291 -236 -101 -615 -42 -896 139 -34 23 -65
41 -67 41 -3 0 -5 -69 -5 -154 0 -119 3 -158 14 -168 22 -23 283 -105 389
-123 138 -23 383 -21 503 4 222 46 394 161 469 315 80 164 43 396 -81 505
-103 90 -217 132 -501 185 -316 59 -420 103 -457 196 -22 57 -21 134 5 187 72
149 389 198 684 106 92 -29 224 -87 274 -120 19 -13 38 -23 42 -23 5 0 9 67 9
149 l0 149 -48 20 c-69 30 -213 70 -310 87 -86 15 -304 27 -357 19z"/>
<path d="M7590 4201 c-252 -54 -451 -204 -559 -424 -28 -56 -57 -129 -65 -162
-40 -161 -44 -376 -10 -542 59 -286 227 -491 478 -582 142 -51 238 -64 426
-58 181 5 243 19 440 95 l95 38 3 157 c1 86 0 157 -2 157 -3 0 -36 -20 -73
-44 -127 -81 -235 -126 -364 -151 -291 -55 -532 44 -641 262 -56 111 -73 202
-73 378 0 176 17 267 72 376 159 319 590 369 996 118 43 -27 80 -49 83 -49 2
0 4 70 4 155 l0 155 -38 19 c-60 31 -240 88 -331 105 -114 22 -330 20 -441 -3z"/>
<path d="M14680 3565 c0 -518 2 -628 16 -693 42 -208 167 -358 354 -423 98
-34 306 -39 421 -10 102 26 219 81 332 155 46 31 86 56 90 56 4 0 7 -43 7 -95
l0 -95 150 0 150 0 0 860 0 860 -150 0 -150 0 0 -643 0 -644 -52 -36 c-193
-132 -404 -193 -578 -169 -105 15 -172 51 -217 116 -68 99 -67 85 -71 764 l-3
612 -149 0 -150 0 0 -615z"/>
<path d="M21070 3320 l0 -860 150 0 150 0 2 617 3 617 65 44 c91 61 233 129
310 146 78 19 272 21 371 4 59 -9 72 -9 80 3 13 21 11 266 -2 275 -7 4 -76 9
-153 12 -122 4 -153 2 -226 -17 -109 -27 -229 -85 -346 -166 -52 -36 -96 -65
-99 -65 -3 0 -5 56 -5 125 l0 125 -150 0 -150 0 0 -860z"/>
</g>
</svg>
